<mxfile host="app.diagrams.net" modified="2021-11-10T11:06:53.782Z" agent="5.0 (Macintosh; Intel Mac OS X 10_15_7) AppleWebKit/537.36 (KHTML, like Gecko) Chrome/95.0.4638.69 Safari/537.36" etag="Oa-GW-ux89MniM-amB8A" version="15.3.2" type="github">
  <diagram id="mokmRHFmaTg4cIyPVfre" name="Page-1">
    <mxGraphModel dx="1186" dy="702" grid="1" gridSize="10" guides="1" tooltips="1" connect="1" arrows="1" fold="1" page="1" pageScale="1" pageWidth="827" pageHeight="1169" math="0" shadow="0">
      <root>
        <mxCell id="0" />
        <mxCell id="1" parent="0" />
        <mxCell id="JfMozvYV5PjfY8iGgsCQ-1" value="" style="curved=1;endArrow=classic;html=1;" edge="1" parent="1">
          <mxGeometry width="50" height="50" relative="1" as="geometry">
            <mxPoint x="390" y="390" as="sourcePoint" />
            <mxPoint x="440" y="340" as="targetPoint" />
            <Array as="points">
              <mxPoint x="440" y="390" />
              <mxPoint x="390" y="340" />
            </Array>
          </mxGeometry>
        </mxCell>
        <mxCell id="JfMozvYV5PjfY8iGgsCQ-2" value="" style="shape=cylinder3;whiteSpace=wrap;html=1;boundedLbl=1;backgroundOutline=1;size=0;" vertex="1" parent="1">
          <mxGeometry x="510" y="210" width="60" height="80" as="geometry" />
        </mxCell>
        <mxCell id="JfMozvYV5PjfY8iGgsCQ-3" value="Actor" style="shape=umlActor;verticalLabelPosition=bottom;verticalAlign=top;html=1;outlineConnect=0;" vertex="1" parent="1">
          <mxGeometry x="90" y="320" width="30" height="60" as="geometry" />
        </mxCell>
        <mxCell id="JfMozvYV5PjfY8iGgsCQ-4" value="" style="shape=flexArrow;endArrow=classic;startArrow=classic;html=1;startWidth=416;startSize=39.03;" edge="1" parent="1">
          <mxGeometry width="100" height="100" relative="1" as="geometry">
            <mxPoint x="210" y="450" as="sourcePoint" />
            <mxPoint x="310" y="350" as="targetPoint" />
          </mxGeometry>
        </mxCell>
        <mxCell id="JfMozvYV5PjfY8iGgsCQ-7" value="" style="edgeStyle=orthogonalEdgeStyle;rounded=0;orthogonalLoop=1;jettySize=auto;html=1;" edge="1" parent="1" source="JfMozvYV5PjfY8iGgsCQ-5" target="JfMozvYV5PjfY8iGgsCQ-6">
          <mxGeometry relative="1" as="geometry" />
        </mxCell>
        <mxCell id="JfMozvYV5PjfY8iGgsCQ-8" value="Text" style="edgeLabel;html=1;align=center;verticalAlign=middle;resizable=0;points=[];" vertex="1" connectable="0" parent="JfMozvYV5PjfY8iGgsCQ-7">
          <mxGeometry x="0.85" y="3" relative="1" as="geometry">
            <mxPoint as="offset" />
          </mxGeometry>
        </mxCell>
        <mxCell id="JfMozvYV5PjfY8iGgsCQ-5" value="" style="shape=or;whiteSpace=wrap;html=1;" vertex="1" parent="1">
          <mxGeometry x="290" y="180" width="60" height="80" as="geometry" />
        </mxCell>
        <mxCell id="JfMozvYV5PjfY8iGgsCQ-6" value="" style="shape=or;whiteSpace=wrap;html=1;" vertex="1" parent="1">
          <mxGeometry x="430" y="180" width="60" height="80" as="geometry" />
        </mxCell>
      </root>
    </mxGraphModel>
  </diagram>
</mxfile>
